<svg xmlns="http://www.w3.org/2000/svg" version="1.1" xmlns:xlink="http://www.w3.org/1999/xlink" xmlns:svgjs="http://svgjs.dev/svgjs" viewBox="0 0 800 800"><defs><filter id="llleaves-blur-2" x="-100%" y="-100%" width="400%" height="400%"><feGaussianBlur in="SourceGraphic" stdDeviation="2"></feGaussianBlur></filter><filter id="llleaves-blur-3" x="-100%" y="-100%" width="400%" height="400%"><feGaussianBlur in="SourceGraphic" stdDeviation="4"></feGaussianBlur></filter><filter id="llleaves-blur-4" x="-100%" y="-100%" width="400%" height="400%"><feGaussianBlur in="SourceGraphic" stdDeviation="12"></feGaussianBlur></filter></defs><g fill="hsl(305, 77%, 40%)"><path d="M378 23H428C456 23 478 45 478 73H428C400 73 378 51 378 23Z " transform="matrix(0.038631469376668504,0.2190899499410183,-0.2190899499410183,0.038631469376668504,421.9820487039548,-47.624809104835904)" filter="url(#llleaves-blur-3)" opacity="0.34"></path><path d="M7 612H57C85 612 107 634 107 662H57C29 662 7 640 7 612Z " transform="matrix(0.08927163640683458,0.17520545145568958,-0.17520545145568958,0.08927163640683458,163.5173893020847,570.147256875872)" filter="url(#llleaves-blur-4)" opacity="0.30"></path><path d="M426 316H476C504 316 526 338 526 366H476C448 366 426 344 426 316Z " transform="matrix(0.11296109259831481,0.1346217879274089,-0.1346217879274089,0.11296109259831481,468.13654960644857,238.400296370528)" filter="url(#llleaves-blur-4)" opacity="0.27"></path><path d="M378 730H428C456 730 478 752 478 780H428C400 780 378 758 378 730Z " transform="matrix(0.12599535416702282,0.08182233970367421,-0.08182233970367421,0.12599535416702282,435.84985489278824,624.8535462107252)" filter="url(#llleaves-blur-4)" opacity="0.23"></path><path d="M297 549H347C375 549 397 571 397 599H347C319 599 297 577 297 549Z " transform="matrix(0.11907065796790194,0.031904886644741746,-0.031904886644741746,0.11907065796790194,323.9958866192198,494.5824466606989)" filter="url(#llleaves-blur-4)" opacity="0.19"></path><path d="M193 23H243C271 23 293 45 293 73H243C215 73 193 51 193 23Z " transform="matrix(0.10033866069707555,0.16057542331126415,-0.16057542331126415,0.10033866069707555,226.3253257695513,4.163916421903188)" filter="url(#llleaves-blur-4)" opacity="0.29"></path><path d="M90 530H140C168 530 190 552 190 580H140C112 580 90 558 90 530Z " transform="matrix(0.12648376684827164,0.07903582941752997,-0.07903582941752997,0.12648376684827164,166.1571579679711,473.73649328075504)" filter="url(#llleaves-blur-4)" opacity="0.23"></path><path d="M-5 240H45C73 240 95 262 95 290H45C17 290 -5 268 -5 240Z " transform="matrix(0.0678156231242469,0.19695087035380185,-0.19695087035380185,0.0678156231242469,94.14027760316635,238.1660707061535)" filter="url(#llleaves-blur-3)" opacity="0.32"></path><path d="M624 279H674C702 279 724 301 724 329H674C646 329 624 307 624 279Z " transform="matrix(-0.19737039237746534,0.22704866391185036,-0.22704866391185036,-0.19737039237746534,876.0504382916141,210.9697998061623)" filter="url(#llleaves-blur-2)" opacity="0.46"></path><path d="M-8 367H42C70 367 92 389 92 417H42C14 417 -8 395 -8 367Z " transform="matrix(0.0678156231242469,0.19695087035380185,-0.19695087035380185,0.0678156231242469,116.35648500747196,357.1443391804355)" filter="url(#llleaves-blur-3)" opacity="0.32"></path><path d="M330 333H380C408 333 430 355 430 383H380C352 383 330 361 330 333Z " transform="matrix(0.12274315020300772,0.047116680909884655,-0.047116680909884655,0.12274315020300772,350.22537468859576,296.15361348156705)" filter="url(#llleaves-blur-4)" opacity="0.20"></path><path d="M374 123H424C452 123 474 145 474 173H424C396 173 374 151 374 123Z " transform="matrix(0.11724977733095839,0.1257349924670811,-0.1257349924670811,0.11724977733095839,392.8948732968016,77.33539614897576)" filter="url(#llleaves-blur-4)" opacity="0.26"></path><path d="M250 246H300C328 246 350 268 350 296H300C272 296 250 274 250 246Z " transform="matrix(0.11513938028942514,0.02447363078713732,-0.02447363078713732,0.11513938028942514,272.09053985648666,232.4551387054246)" filter="url(#llleaves-blur-4)" opacity="0.18"></path><path d="M594 549H644C672 549 694 571 694 599H644C616 599 594 577 594 549Z " transform="matrix(-0.1365571453940872,0.24635561161447653,-0.24635561161447653,-0.1365571453940872,873.3509227005015,493.7307875764832)" filter="url(#llleaves-blur-3)" opacity="0.43"></path><path d="M241 354H291C319 354 341 376 341 404H291C263 404 241 382 241 354Z " transform="matrix(0.11513938028942514,0.02447363078713732,-0.02447363078713732,0.11513938028942514,266.7699464041023,328.2403483112509)" filter="url(#llleaves-blur-4)" opacity="0.18"></path><path d="M526 302H576C604 302 626 324 626 352H576C548 352 526 330 526 302Z " transform="matrix(-0.004170295475609608,0.23891606778660457,-0.23891606778660457,-0.004170295475609608,656.5276443601708,190.7480315754401)" filter="url(#llleaves-blur-3)" opacity="0.36"></path><path d="M196 540H246C274 540 296 562 296 590H246C218 590 196 568 196 540Z " transform="matrix(0.11711479051044246,0.027038079839195116,-0.027038079839195116,0.11711479051044246,232.4662766435764,492.178775721158)" filter="url(#llleaves-blur-4)" opacity="0.18"></path><path d="M585 460H635C663 460 685 482 685 510H635C607 510 585 488 585 460Z " transform="matrix(-0.1365571453940872,0.24635561161447653,-0.24635561161447653,-0.1365571453940872,841.1962589582665,394.7944021409397)" filter="url(#llleaves-blur-3)" opacity="0.43"></path><path d="M488 608H538C566 608 588 630 588 658H538C510 658 488 636 488 608Z " transform="matrix(0.0488013010366621,0.2113816580739803,-0.2113816580739803,0.0488013010366621,645.5494896031053,488.38544439999146)" filter="url(#llleaves-blur-3)" opacity="0.33"></path><path d="M447 216H497C525 216 547 238 547 266H497C469 266 447 244 447 216Z " transform="matrix(0.10369557083127352,0.15373500592209435,-0.15373500592209435,0.10369557083127352,482.51343772408177,139.6030694863822)" filter="url(#llleaves-blur-4)" opacity="0.28"></path><path d="M-1 25H49C77 25 99 47 99 75H49C21 75 -1 53 -1 25Z " transform="matrix(-0.24514530045796465,0.1985147501236526,-0.1985147501236526,-0.24514530045796465,70.9378572286229,52.53004226683926)" filter="url(#llleaves-blur-2)" opacity="0.48"></path><path d="M467 24H517C545 24 567 46 567 74H517C489 74 467 52 467 24Z " transform="matrix(-0.14177029790346396,0.24555335897297517,-0.24555335897297517,-0.14177029790346396,602.3273586057667,-71.00434199175844)" filter="url(#llleaves-blur-3)" opacity="0.43"></path><path d="M246 634H296C324 634 346 656 346 684H296C268 684 246 662 246 634Z " transform="matrix(0.11513938028942514,0.02447363078713732,-0.02447363078713732,0.11513938028942514,278.04686612305363,575.8789536762762)" filter="url(#llleaves-blur-4)" opacity="0.18"></path><path d="M706 126H756C784 126 806 148 806 176H756C728 176 706 154 706 126Z " transform="matrix(-0.362327992779777,0.04448828349629573,-0.04448828349629573,-0.362327992779777,1036.637693349452,172.07838458654678)" filter="url(#llleaves-blur-2)" opacity="0.56"></path><path d="M472 119H522C550 119 572 141 572 169H522C494 169 472 147 472 119Z " transform="matrix(0.0041268797340189714,0.23642878161670738,-0.23642878161670738,0.0041268797340189714,553.891513331648,19.989905314379996)" filter="url(#llleaves-blur-3)" opacity="0.36"></path><path d="M710 244H760C788 244 810 266 810 294H760C732 294 710 272 710 244Z " transform="matrix(-0.30869985179136433,0.13744202916800918,-0.13744202916800918,-0.30869985179136433,1031.5837932076313,247.58431796419)" filter="url(#llleaves-blur-2)" opacity="0.52"></path><path d="M541 722H591C619 722 641 744 641 772H591C563 772 541 750 541 722Z " transform="matrix(-0.03478607457748046,0.24751578180920372,-0.24751578180920372,-0.03478607457748046,796.4528590867662,626.7033706601385)" filter="url(#llleaves-blur-3)" opacity="0.38"></path><path d="M180 125H230C258 125 280 147 280 175H230C202 175 180 153 180 125Z " transform="matrix(0.12571892695551493,0.061317217675735745,-0.061317217675735745,0.12571892695551493,210.28222945159192,117.03920089125353)" filter="url(#llleaves-blur-4)" opacity="0.21"></path><path d="M-5 720H45C73 720 95 742 95 770H45C17 770 -5 748 -5 720Z " transform="matrix(0.0678156231242469,0.19695087035380185,-0.19695087035380185,0.0678156231242469,188.67669537299128,685.614571606515)" filter="url(#llleaves-blur-3)" opacity="0.32"></path><path d="M-6 494H44C72 494 94 516 94 544H44C16 544 -6 522 -6 494Z " transform="matrix(0.0678156231242469,0.19695087035380185,-0.19695087035380185,0.0678156231242469,143.2336142961563,475.1378533029486)" filter="url(#llleaves-blur-3)" opacity="0.32"></path></g><g fill="none" stroke-width="3" stroke="hsl(305, 77%, 40%)"><path d="M287 448H337C365 448 387 470 387 498H337C309 498 287 476 287 448Z " transform="matrix(0.11907065796790194,0.031904886644741746,-0.031904886644741746,0.11907065796790194,311.9641996477799,405.9276319819044)" filter="url(#llleaves-blur-4)" opacity="0.19"></path><path d="M495 399H545C573 399 595 421 595 449H545C517 449 495 427 495 399Z " transform="matrix(0.0488013010366621,0.2113816580739803,-0.2113816580739803,0.0488013010366621,608.0291139583868,288.105244710136)" filter="url(#llleaves-blur-3)" opacity="0.33"></path><path d="M189 725H239C267 725 289 747 289 775H239C211 775 189 753 189 725Z " transform="matrix(0.11711479051044246,0.027038079839195116,-0.027038079839195116,0.11711479051044246,231.2881249474006,655.7018060356005)" filter="url(#llleaves-blur-4)" opacity="0.18"></path><path d="M83 161H133C161 161 183 183 183 211H133C105 211 83 189 83 161Z " transform="matrix(0.12542239801560262,0.094512555998262,-0.094512555998262,0.12542239801560262,133.8981564796016,150.10126402132906)" filter="url(#llleaves-blur-4)" opacity="0.24"></path><path d="M701 589H751C779 589 801 611 801 639H751C723 639 701 617 701 589Z " transform="matrix(-0.30869985179136433,0.13744202916800918,-0.13744202916800918,-0.30869985179136433,1067.2229946044722,700.3227450947228)" filter="url(#llleaves-blur-2)" opacity="0.52"></path><path d="M371 630H421C449 630 471 652 471 680H421C393 680 371 658 371 630Z " transform="matrix(0.12599535416702282,0.08182233970367421,-0.08182233970367421,0.12599535416702282,421.54958840159003,538.0258380053532)" filter="url(#llleaves-blur-4)" opacity="0.23"></path><path d="M569 107H619C647 107 669 129 669 157H619C591 157 569 135 569 107Z " transform="matrix(-0.26375484964090706,0.18468313395793184,-0.18468313395793184,-0.26375484964090706,806.6424256101685,52.496780232639935)" filter="url(#llleaves-blur-2)" opacity="0.49"></path><path d="M635 175H685C713 175 735 197 735 225H685C657 225 635 203 635 175Z " transform="matrix(-0.226426174673623,0.21114582377959482,-0.21114582377959482,-0.226426174673623,882.3310944073507,100.65034564570215)" filter="url(#llleaves-blur-2)" opacity="0.47"></path><path d="M289 723H339C367 723 389 745 389 773H339C311 773 289 751 289 723Z " transform="matrix(0.11907065796790194,0.031904886644741746,-0.031904886644741746,0.11907065796790194,322.49990215914806,648.1193912674419)" filter="url(#llleaves-blur-4)" opacity="0.19"></path><path d="M696 475H746C774 475 796 497 796 525H746C718 525 696 503 696 475Z " transform="matrix(-0.29305368285977085,0.15581940715967213,-0.15581940715967213,-0.29305368285977085,1042.527750993225,530.28556368877)" filter="url(#llleaves-blur-2)" opacity="0.51"></path><path d="M459 713H509C537 713 559 735 559 763H509C481 763 459 741 459 713Z " transform="matrix(0.08880168620418383,0.17428312225090298,-0.17428312225090298,0.08880168620418383,592.4208859432368,583.7542463556027)" filter="url(#llleaves-blur-4)" opacity="0.30"></path><path d="M392 526H442C470 526 492 548 492 576H442C414 576 392 554 392 526Z " transform="matrix(0.1245526391821527,0.09731118673649326,-0.09731118673649326,0.1245526391821527,440.5661973732963,439.3599512731039)" filter="url(#llleaves-blur-4)" opacity="0.24"></path><path d="M712 23H762C790 23 812 45 812 73H762C734 73 712 51 712 23Z " transform="matrix(-0.29554993989367584,-0.3399913136097527,0.3399913136097527,-0.29554993989367584,970.889471145713,321.259778085528)" opacity="0.69"></path><path d="M156 231H206C234 231 256 253 256 281H206C178 281 156 259 156 231Z " transform="matrix(0.12076467744617742,0.03692146713175514,-0.03692146713175514,0.12076467744617742,190.57437203181678,217.47842034463702)" filter="url(#llleaves-blur-4)" opacity="0.19"></path><path d="M128 629H178C206 629 228 651 228 679H178C150 679 128 657 128 629Z " transform="matrix(0.12419041864527583,0.05529313682135287,-0.05529313682135287,0.12419041864527583,192.05581696230567,562.9372878517888)" filter="url(#llleaves-blur-4)" opacity="0.21"></path><path d="M76 419H126C154 419 176 441 176 469H126C98 469 76 447 76 419Z " transform="matrix(0.12542239801560262,0.094512555998262,-0.094512555998262,0.12542239801560262,152.1603527132624,376.4038732252914)" filter="url(#llleaves-blur-4)" opacity="0.24"></path><path d="M391 422H441C469 422 491 444 491 472H441C413 472 391 450 391 422Z " transform="matrix(0.1245526391821527,0.09731118673649326,-0.09731118673649326,0.1245526391821527,429.57038659188316,348.4107369347842)" filter="url(#llleaves-blur-4)" opacity="0.24"></path><path d="M175 443H225C253 443 275 465 275 493H225C197 493 175 471 175 443Z " transform="matrix(0.11860913694845407,0.0317812224602907,-0.0317812224602907,0.11860913694845407,213.18655629801387,405.3401488545581)" filter="url(#llleaves-blur-4)" opacity="0.19"></path><path d="M-3 127H47C75 127 97 149 97 177H47C19 177 -3 155 -3 127Z " transform="matrix(0.027598434784052547,0.2247712137511881,-0.2247712137511881,0.027598434784052547,79.86809805533012,137.24079086651818)" filter="url(#llleaves-blur-3)" opacity="0.35"></path><path d="M151 338H201C229 338 251 360 251 388H201C173 388 151 366 151 338Z " transform="matrix(0.12076467744617742,0.03692146713175514,-0.03692146713175514,0.12076467744617742,190.12879240214545,311.7412071935548)" filter="url(#llleaves-blur-4)" opacity="0.19"></path><path d="M710 708H760C788 708 810 730 810 758H760C732 758 710 736 710 708Z " transform="matrix(-0.30869985179136433,0.13744202916800918,-0.13744202916800918,-0.30869985179136433,1095.3568947415877,854.821049195383)" filter="url(#llleaves-blur-2)" opacity="0.52"></path><path d="M276 141H326C354 141 376 163 376 191H326C298 191 276 169 276 141Z " transform="matrix(0.12302383561580586,0.04477701426941162,-0.04477701426941162,0.12302383561580586,293.3272139579696,130.98073663594803)" filter="url(#llleaves-blur-4)" opacity="0.20"></path><path d="M487 502H537C565 502 587 524 587 552H537C509 552 487 530 487 502Z " transform="matrix(0.0488013010366621,0.2113816580739803,-0.2113816580739803,0.0488013010366621,622.1918351483001,387.76976396795163)" filter="url(#llleaves-blur-3)" opacity="0.33"></path><path d="M553 17H603C631 17 653 39 653 67H603C575 67 553 45 553 17Z " transform="matrix(-0.36603708101780175,0.03202409501917801,-0.03202409501917801,-0.36603708101780175,825.0653718445399,38.06302810618333)" filter="url(#llleaves-blur-2)" opacity="0.56"></path><path d="M350 227H400C428 227 450 249 450 277H400C372 277 350 255 350 227Z " transform="matrix(0.12506109785617242,0.05568078818174583,-0.05568078818174583,0.12506109785617242,364.007119479331,198.21228806754624)" filter="url(#llleaves-blur-4)" opacity="0.21"></path><path d="M286 32H336C364 32 386 54 386 82H336C308 82 286 60 286 32Z " transform="matrix(0.11204025658571339,0.138358194275155,-0.138358194275155,0.11204025658571339,306.2408908608841,4.125352098162253)" filter="url(#llleaves-blur-4)" opacity="0.27"></path><path d="M95 37H145C173 37 195 59 195 87H145C117 87 95 65 95 37Z " transform="matrix(0.03506588581997536,0.22139728970929148,-0.22139728970929148,0.03506588581997536,153.64207851807964,27.723308071314264)" filter="url(#llleaves-blur-3)" opacity="0.34"></path><path d="M603 641H653C681 641 703 663 703 691H653C625 691 603 669 603 641Z " transform="matrix(-0.1672035180383564,0.23879137100674808,-0.23879137100674808,-0.1672035180383564,921.218950369541,621.4267777461389)" filter="url(#llleaves-blur-3)" opacity="0.45"></path><path d="M631 733H681C709 733 731 755 731 783H681C653 783 631 761 631 733Z " transform="matrix(-0.19737039237746534,0.22704866391185036,-0.22704866391185036,-0.19737039237746534,987.5121244542363,752.9866172981486)" filter="url(#llleaves-blur-2)" opacity="0.46"></path><path d="M70 293H120C148 293 170 315 170 343H120C92 343 70 321 70 293Z " transform="matrix(0.12542239801560262,0.094512555998262,-0.094512555998262,0.12542239801560262,135.004305045575,266.77417071124694)" filter="url(#llleaves-blur-4)" opacity="0.24"></path><path d="M636 36H686C714 36 736 58 736 86H686C658 86 636 64 636 36Z " transform="matrix(-0.3743034962973928,-0.17454058679766532,0.17454058679766532,-0.3743034962973928,932.1252226653537,203.56735581733938)" opacity="0.63"></path><path d="M543 204H593C621 204 643 226 643 254H593C565 254 543 232 543 204Z " transform="matrix(-0.03478607457748046,0.24751578180920372,-0.24751578180920372,-0.03478607457748046,670.3092562587535,90.18915246538523)" filter="url(#llleaves-blur-3)" opacity="0.38"></path><path d="M705 361H755C783 361 805 383 805 411H755C727 411 705 389 705 361Z " transform="matrix(-0.30869985179136433,0.13744202916800918,-0.13744202916800918,-0.30869985179136433,1041.1210113613317,401.3894107696197)" filter="url(#llleaves-blur-2)" opacity="0.52"></path><path d="M607 376H657C685 376 707 398 707 426H657C629 426 607 404 607 376Z " transform="matrix(-0.1672035180383564,0.23879137100674808,-0.23879137100674808,-0.1672035180383564,862.6080511249061,311.1626799819474)" filter="url(#llleaves-blur-3)" opacity="0.45"></path><path d="M89 722H139C167 722 189 744 189 772H139C111 772 89 750 89 722Z " transform="matrix(0.12648376684827164,0.07903582941752997,-0.07903582941752997,0.12648376684827164,180.45852098298514,641.5306458753045)" filter="url(#llleaves-blur-4)" opacity="0.23"></path></g></svg>